<?xml version="1.0" encoding="utf-8"?>
<!-- Generator: Adobe Illustrator 26.4.1, SVG Export Plug-In . SVG Version: 6.00 Build 0)  -->
<svg version="1.1" id="Livello_1" xmlns="http://www.w3.org/2000/svg" xmlns:xlink="http://www.w3.org/1999/xlink" x="0px" y="0px"
	 viewBox="0 0 271.7 66.8" style="enable-background:new 0 0 271.7 66.8;" xml:space="preserve">
<style type="text/css">
	.st0{fill:#FFFFFF;}
</style>
<g id="Livello_2_00000121966493948355653580000008906364420869056423_">
	<g id="Livello_1-2">
		<path class="st0" d="M143.8,5.9h2.9v16c0.1,1.6-0.3,3.1-1.2,4.4c-0.7,1.3-1.9,2.4-3.2,3c-3.1,1.5-6.7,1.5-9.7,0
			c-1.4-0.7-2.5-1.8-3.2-3c-0.8-1.4-1.2-2.8-1.2-4.4v-16h2.9v15.8c0,1.1,0.3,2.2,0.7,3.2c0.5,0.9,1.3,1.7,2.2,2.2
			c2.2,1.1,4.7,1.1,6.8,0c0.9-0.5,1.7-1.2,2.2-2.2c0.5-0.9,0.8-2,0.7-3.2L143.8,5.9z M170.2,5.9v24.2h-2.8l-13-19h-0.2v19h-2.9V5.9
			h2.8l13,19h0.3v-19H170.2z M177.7,30.1h-2.9V5.9h2.9V30.1z M184,30.3c-0.5,0-1.1-0.2-1.5-0.6c-0.8-0.8-0.8-2.2,0-3
			c0.7-0.8,2-0.9,2.8-0.1l0.1,0.1c0.7,0.7,0.8,1.8,0.3,2.6c-0.2,0.3-0.5,0.6-0.7,0.7C184.8,30.3,184.4,30.3,184,30.3 M206.4,30.1
			l-5.4-10c0.3-0.1,0.6-0.3,0.9-0.4c1.2-0.5,2-1.5,2.6-2.6c0.6-1.2,0.9-2.5,0.9-3.8c0-1.4-0.3-2.6-0.9-3.8s-1.5-2-2.6-2.6
			c-1.4-0.7-3-1-4.5-0.9h-7v24.2h2.9v-9.5h4.2c0.2,0,0.4,0,0.6,0l5,9.5L206.4,30.1z M193.2,8.5h4.1c1.1-0.1,2.1,0.1,3.1,0.6
			c0.7,0.3,1.4,0.9,1.7,1.7c0.3,0.8,0.5,1.7,0.5,2.6s-0.1,1.7-0.5,2.5c-0.3,0.7-0.9,1.3-1.7,1.6c-0.9,0.4-2,0.6-3,0.5h-4.1V8.5z
			 M222.2,12c-0.1-1.2-0.7-2.2-1.7-2.8c-1.1-0.7-2.4-1-3.7-1c-0.9,0-1.9,0.1-2.8,0.5c-0.7,0.3-1.4,0.8-1.8,1.4
			c-0.5,0.6-0.7,1.4-0.7,2.1c0,0.6,0.1,1.2,0.5,1.6c0.3,0.5,0.7,0.9,1.2,1.2c0.5,0.3,0.9,0.5,1.5,0.7c0.5,0.2,1,0.3,1.4,0.5l2.4,0.7
			c0.7,0.2,1.4,0.4,2.1,0.7c0.8,0.3,1.5,0.7,2.2,1.2c0.7,0.5,1.3,1.2,1.8,1.9c0.5,0.9,0.7,1.9,0.7,2.8c0,1.3-0.3,2.5-1,3.5
			c-0.7,1.1-1.7,2-2.8,2.5c-2.9,1.2-6.2,1.2-9.1,0.1c-1.2-0.5-2.2-1.3-2.9-2.4c-0.7-1-1.2-2.2-1.2-3.5h3c0.1,0.8,0.3,1.6,0.9,2.2
			c0.5,0.6,1.2,1.1,2,1.4c0.9,0.3,1.8,0.4,2.6,0.4c1,0,2-0.2,3-0.5c0.8-0.3,1.6-0.9,2.1-1.6c0.5-0.7,0.8-1.5,0.7-2.3
			c0-0.7-0.2-1.4-0.7-2s-1.1-0.9-1.8-1.2c-0.7-0.3-1.6-0.6-2.4-0.8l-2.9-0.9c-1.6-0.4-3.2-1.2-4.4-2.3c-1.1-1-1.7-2.4-1.6-3.9
			c0-1.3,0.3-2.5,1.1-3.6c0.7-1,1.8-1.8,2.9-2.4c1.3-0.5,2.7-0.9,4.1-0.8c1.4,0,2.8,0.3,4.1,0.8c1.2,0.5,2.1,1.3,2.8,2.3
			c0.7,0.9,1.1,2.1,1.1,3.2L222.2,12z M229,5.9h3.5l8.1,20.1h0.3l8.1-20.1h3.5v24.2h-2.7V11.8h-0.3L242,30.2h-2.6l-7.4-18.4h-0.3
			v18.4h-2.7L229,5.9z M143.8,60.7h-7.9V36.5h8.3c2.1-0.1,4.2,0.4,6,1.4c1.7,0.9,3,2.4,3.9,4.1c0.9,2,1.4,4.2,1.4,6.4
			c0.1,2.2-0.4,4.5-1.4,6.5c-0.9,1.8-2.2,3.2-3.9,4.2C148.1,60.3,146,60.8,143.8,60.7 M138.8,58.1h4.8c1.8,0.1,3.5-0.3,5-1.2
			c1.3-0.7,2.3-1.9,2.9-3.3c0.7-1.6,1-3.3,0.9-5.1c0.1-1.8-0.3-3.5-0.9-5.1c-0.6-1.4-1.6-2.5-2.8-3.2c-1.4-0.8-3.1-1.2-4.7-1.2h-5.1
			V58.1z M159.1,60.7V36.5h16.6v2.6H162v8.2h12.9v2.6H162v8.3h13.9v2.6H159.1z M193.6,42.6c-0.1-1.2-0.7-2.2-1.7-2.8
			c-1.1-0.7-2.4-1-3.7-1c-0.9,0-1.9,0.1-2.8,0.5c-0.7,0.3-1.4,0.8-1.8,1.4c-0.5,0.6-0.7,1.4-0.7,2.1c0,0.6,0.1,1.2,0.5,1.7
			c0.3,0.5,0.7,0.9,1.2,1.2c0.5,0.3,1,0.5,1.6,0.7c0.5,0.2,1,0.3,1.5,0.5l2.4,0.7c0.7,0.2,1.4,0.4,2.1,0.7c0.8,0.3,1.6,0.7,2.2,1.2
			c0.7,0.5,1.4,1.2,1.8,1.9c0.5,0.9,0.7,1.9,0.7,2.8c0,1.3-0.3,2.5-1,3.5c-0.7,1.1-1.8,2-3,2.5c-3,1.2-6.2,1.2-9.2,0.1
			c-1.2-0.5-2.2-1.3-3-2.3s-1.2-2.2-1.2-3.5h3c0.1,0.8,0.4,1.6,0.9,2.2c0.5,0.6,1.2,1.1,2,1.4c0.9,0.3,1.8,0.4,2.7,0.4
			c1,0,2-0.2,3-0.5c0.8-0.3,1.6-0.9,2.1-1.6c0.5-0.7,0.8-1.5,0.7-2.3c0-0.7-0.2-1.4-0.7-2c-0.5-0.5-1.1-0.9-1.8-1.2
			c-0.7-0.3-1.6-0.6-2.4-0.8l-3-0.9c-1.6-0.5-3.2-1.3-4.5-2.4c-1.1-1-1.7-2.4-1.7-3.9c0-1.3,0.3-2.5,1.1-3.5s1.8-1.8,3-2.4
			c1.3-0.6,2.7-0.9,4.2-0.9c1.4,0,2.8,0.3,4.1,0.8c1.2,0.5,2.2,1.3,2.9,2.3c0.7,0.9,1.1,2.1,1.2,3.2L193.6,42.6z M203.9,60.7h-2.9
			V36.5h2.9V60.7z M219.5,48.6v2.6h6.4c0,1.3-0.3,2.5-0.9,3.7c-0.5,1.1-1.4,2-2.5,2.5c-1.2,0.6-2.4,0.9-3.7,0.9
			c-1.4,0-2.8-0.3-4.1-1.1c-1.2-0.8-2.2-2-2.8-3.2c-0.7-1.7-1.1-3.5-1-5.3c-0.1-1.8,0.3-3.7,1-5.3c0.6-1.4,1.6-2.4,2.8-3.2
			c1.2-0.7,2.6-1.2,3.9-1.1c0.8,0,1.6,0.1,2.4,0.3c0.7,0.2,1.4,0.5,2,1c0.6,0.5,1.1,1,1.5,1.6c0.4,0.7,0.8,1.4,1,2.2h3
			c-0.2-1.2-0.6-2.2-1.2-3.2c-0.5-0.9-1.3-1.8-2.2-2.5c-0.9-0.7-1.9-1.3-3-1.6c-1.2-0.4-2.4-0.6-3.6-0.5c-1.5,0-2.9,0.3-4.3,0.9
			c-1.3,0.5-2.4,1.4-3.4,2.5c-1,1.2-1.8,2.5-2.2,3.9c-0.5,1.7-0.8,3.4-0.7,5.1c-0.1,2.3,0.4,4.5,1.4,6.6c0.8,1.8,2.2,3.2,3.8,4.3
			c3.3,1.9,7.4,2,10.8,0.3c1.5-0.7,2.7-2,3.5-3.4c0.9-1.6,1.3-3.4,1.3-5.2v-2.6h-9.3V48.6z M252.3,36.5v24.2h-2.8l-13.1-19.1h-0.2
			v19h-2.9V36.5h2.8l13.1,19h0.3v-19H252.3z M130.3,60.9c-1.2,0-2.2-0.9-2.2-2.1c0-1.2,0.9-2.2,2.1-2.2c1.2,0,2.2,0.9,2.2,2.1
			c0,0.4-0.1,0.7-0.3,1.1c-0.2,0.3-0.5,0.6-0.8,0.8C131,60.9,130.7,60.9,130.3,60.9 M0,33.3c-0.3,15.2,11.6,27.7,26.8,28
			s27.7-11.6,28-26.8c0-0.4,0-0.8,0-1.2V5.9H0V33.3z M93.2,60.8c15.2-0.3,27.1-12.9,26.8-28c-0.3-14.7-12.1-26.5-26.8-26.8H65.8
			v54.8H93.2z"/>
	</g>
</g>
</svg>
