<?xml version="1.0" encoding="UTF-8"?>
<svg id="svg2" xmlns="http://www.w3.org/2000/svg" xmlns:svg="http://www.w3.org/2000/svg" xmlns:sodipodi="http://sodipodi.sourceforge.net/DTD/sodipodi-0.dtd" xmlns:rdf="http://www.w3.org/1999/02/22-rdf-syntax-ns#" xmlns:inkscape="http://www.inkscape.org/namespaces/inkscape" xmlns:dc="http://purl.org/dc/elements/1.1/" xmlns:cc="http://creativecommons.org/ns#" version="1.1" viewBox="0 0 626.2 271.2">
  <defs>
    <style>
      .cls-1 {
        fill: #d2d3d2;
      }

      .cls-1, .cls-2 {
        stroke-width: 0px;
      }

      .cls-2 {
        fill: #fff;
      }
    </style>
  </defs>
  <sodipodi:namedview id="namedview4" bordercolor="#666666" borderopacity="1" gridtolerance="10" guidetolerance="10" inkscape:pageopacity="0" inkscape:pageshadow="2" inkscape:window-height="480" inkscape:window-width="640" objecttolerance="10" pagecolor="#ffffff"/>
  <g id="g10" inkscape:groupmode="layer" inkscape:label="ink_ext_XXXXXX">
    <g id="g12">
      <path id="path14" class="cls-1" d="M624.9,245.8h-16l-9.5-29.1c-1.4-4.1-2.2-7.9-2.8-11-.5-3.1-.7-7.1-.9-12.3h-6c-.1,5.4-.4,9.6-.8,12.8-.4,3.1-1.3,6.6-2.5,10.5l-9.1,29.1h-15.5l21.8-62.3h18.4l22.9,62.3"/>
      <path id="path16" class="cls-1" d="M553,245.8h-15.1v-62.3h15.1v62.3ZM553.6,271.2h-16.3v-15.5h16.3v15.5"/>
      <path id="path18" class="cls-1" d="M512.5,204.2c-1.1-5.5-5.1-11-15-11s-11.1,2.8-11.1,7.1,2.3,6.4,9.3,7.8l8.3,1.5c12.6,2.6,20.1,7,20.1,18.8s-10.4,19.4-25.3,19.4-23.1-7.4-26-15l12.9-5.5c2,5.4,6.5,9.5,13.6,9.5s10.3-2.9,10.3-7-2-5.5-9.5-7l-8.1-1.5c-5.9-1.1-10.9-3.2-15-6.2-4.1-3-6.3-7.4-6.3-13.1,0-12.1,10.4-20,27.5-20s25.8,6.8,28.5,17.8l-14.1,4.6"/>
      <path id="path20" class="cls-1" d="M349.7,222.2c.5,9,5.9,14.1,13.9,14.1s13.4-5.3,14.5-14.1h-28.4ZM363.6,247.7c-18,0-29.3-13.5-29.3-32s.1-3.4.2-4.8h44c-.5-11.9-6.8-17.3-15.4-17.3s-12.4,4.8-15.3,11.3l-13.8-5.1c4.4-10.9,14.3-13.7,29.7-13.7s29.8,8,29.8,28.6-12.9,33-30.1,33"/>
      <path id="path22" class="cls-1" d="M323,271.1h-15.3v-87.5h15.3v87.5"/>
      <path id="path24" class="cls-1" d="M298.3,271.1h-15.3v-87.5h15.3v87.5"/>
      <path id="path26" class="cls-1" d="M232,222.2c.5,9,5.9,14.1,13.9,14.1s13.4-5.3,14.5-14.1h-28.4ZM245.9,247.7c-18,0-29.3-13.5-29.3-32s.1-3.4.3-4.8h44c-.5-11.9-6.8-17.3-15.4-17.3s-12.4,4.8-15.3,11.3l-13.8-5.1c4.4-10.9,13.8-18.1,29.1-18.1s30.4,12.4,30.4,33-12.9,33-30.1,33"/>
      <path id="path28" class="cls-1" d="M194.5,204.2c-1.1-5.5-5.1-11-15-11s-11.1,2.8-11.1,7.1,2.3,6.4,9.3,7.8l8.3,1.5c12.6,2.6,20.1,7,20.1,18.8s-10.4,19.4-25.3,19.4-23.1-7.4-26-15l12.9-5.5c2,5.4,6.5,9.5,13.6,9.5s10.3-2.9,10.3-7-2-5.5-9.5-7l-8.1-1.5c-5.9-1.1-10.9-3.2-15-6.2-4.1-3-6.3-7.4-6.3-13.1,0-12.1,10.4-20,27.5-20s25.8,6.8,28.5,17.8l-14.1,4.6"/>
      <path id="path30" class="cls-1" d="M441.3,181.7c-10.3,0-16.8,7.9-19.5,16.3h-7.1c3.5-5.1,6-10.8,6.1-14.4h-18.8v12h.9c3.3,0,3.8.6,3.8,3.8h0v46.5h15.3v-28.5c0-7.5.5-14,4.6-19,2.1-2.6,5.4-3.9,9.6-3.9,7.1,0,11.3,4.4,11.3,13.4v38h15.3v-41c0-14.4-7.4-23.1-21.4-23.1"/>
      <path id="path32" class="cls-2" d="M146,25.3l-9.1,29.1c-1.2,3.9-2.1,7.4-2.5,10.5-.4,3.1-.6,7.4-.8,12.8h-6c-.1-5.1-.4-9.1-.9-12.3-.5-3.1-1.4-6.9-2.7-11l-9.5-29.1h-16l22.9,62.3h18.4l21.8-62.3h-15.5"/>
      <path id="path34" class="cls-2" d="M186.7,25.3h-15.1v62.3h15.1V25.3"/>
      <path id="path36" class="cls-2" d="M252.9,69.3c0-5.8-2.1-10.1-6.3-13.1-4.1-3-9.1-5.1-15-6.3l-8.1-1.5c-7.5-1.5-9.5-3.4-9.5-7s3.6-7,10.3-7,11.6,4.1,13.6,9.5l12.9-5.5c-2.9-7.6-11.1-15-26-15s-25.3,7.9-25.3,19.4,7.5,16.1,20.1,18.8l8.3,1.5c7,1.4,9.3,3.9,9.3,7.8s-4,7.1-11.1,7.1-13.9-5.5-15-11l-14.1,4.6c2.2,9,10.4,15.1,21,17.1v18.4h-12.2v11.9h12.2v34.5c0,10,5.6,15.9,15.8,15.9h14.7v-12.5h-9.4c-4,0-5.8-1.8-5.8-5.8v-32.1h15.2v-11.9h-15.2v-18.4c12.5-2.1,19.8-9.2,19.8-19.4"/>
      <path id="path38" class="cls-2" d="M372.9,61.9c0,10.6-6.5,16-14.3,16s-9.4-2.9-9.4-7.9c0-8,8.8-11.5,23.6-13.1v5ZM361.5,35c7.9,0,11.4,3.4,11.4,9.8v2.1c-11.9,1.1-21.4,3.5-28.5,7.3-7.1,3.6-10.6,9.5-10.6,17.4s8,17.9,20,17.9,16.5-6,19.1-14.9h5.4c.3,9.8,2.6,13,12.9,13h6.5v-12h-5.9c-3.3,0-3.8-.6-3.8-3.8v-25.1c0-15.1-9.4-23.3-26.5-23.3s-27.4,9-28.6,18.4l13.9,3.6c1.6-6.4,6.3-10.4,14.8-10.4"/>
      <path id="path40" class="cls-2" d="M318.4,71.8V25.3h-15.3v29.3c0,6.3-1,11.5-3.1,15.8-2,4.3-5.6,6.4-11,6.4s-10.8-4.5-10.8-13.5V25.3h-15.3v41.5c0,13.9,7.3,22.6,20.1,22.6s16.4-6.8,19.8-16.3h7.1c-3.5,5-5.9,10.4-5.9,14.4h18.9v-12h-.9c-3.2,0-3.7-.6-3.7-3.7"/>
      <path id="path42" class="cls-2" d="M176.1,105.1c-10.3,0-16.8,7.9-19.5,16.3h-7.1c3.5-5.1,6-10.8,6.1-14.4h-14.1v62.3h15.3v-28.5c0-7.5.5-14,4.6-19,2.1-2.6,5.4-3.9,9.6-3.9,7.1,0,11.3,4.4,11.3,13.4v38h15.3v-41c0-14.4-7.4-23.1-21.4-23.1"/>
      <path id="path44" class="cls-2" d="M298.3,143.7c0,10.6-6.5,16-14.3,16s-9.4-2.9-9.4-7.9c0-8,8.8-11.5,23.6-13.1v5ZM313.4,153.5v-25.1c0-15.1-9.4-23.3-26.5-23.3s-27.4,9-28.6,18.4l13.9,3.6c1.6-6.4,6.3-10.4,14.8-10.4s11.4,3.4,11.4,9.8v2.1c-11.9,1.1-21.4,3.5-28.5,7.3-7.1,3.6-10.6,9.5-10.6,17.4s8,17.9,20,17.9,16.5-6,19.1-14.9h5.4c.3,9.8,2.6,13,12.9,13h6.5v-12h-5.9c-3.3,0-3.8-.6-3.8-3.8"/>
      <path id="path46" class="cls-2" d="M406.7,169.3h15.1v-62.3h-15.1v62.3"/>
      <path id="path48" class="cls-2" d="M406.7,96.9h15.1V0h-15.1v96.9"/>
      <path id="path50" class="cls-2" d="M619.9,137.9c-4.1-3-9.1-5.1-15-6.3l-8.1-1.5c-7.5-1.5-9.5-3.4-9.5-7s3.6-7,10.3-7,11.6,4.1,13.6,9.5l12.9-5.5c-2.9-7.6-11.1-15-26-15s-25.3,7.9-25.3,19.4,7.5,16.1,20.1,18.8l8.3,1.5c7,1.4,9.3,3.9,9.3,7.8s-4,7.1-11.1,7.1-13.9-5.5-15-11l-14.1,4.6c2.8,11,14.5,17.8,28.5,17.8s27.5-7.9,27.5-20-2.1-10.1-6.3-13.1"/>
      <path id="path52" class="cls-2" d="M477.8,158.8h-31.3v-41.3h31.3v41.3ZM462.2,105.1c-18.4,0-31.4,13.6-31.4,33s13.4,33,31.4,33,31.4-13.4,31.4-33-13.1-33-31.4-33"/>
      <path id="path54" class="cls-2" d="M116,158.8h-31.3v-41.3h31.3v41.3ZM100.3,105.1c-18.4,0-31.4,13.6-31.4,33s13.4,33,31.4,33,31.4-13.4,31.4-33-13.1-33-31.4-33"/>
      <path id="path56" class="cls-2" d="M47,146.1v12.7H15.8v-41.3h31.3v12.7h.1s13.5-4.8,13.5-4.8c-4.4-12.3-15.3-20.2-29.2-20.2S0,118.8,0,138.2s13.4,33,31.4,33,24.8-7.8,29.2-20.2l-13.5-4.8h-.1"/>
      <path id="path58" class="cls-2" d="M187,0h-15.1v15.1h15.1V0"/>
      <path id="path60" class="cls-2" d="M539.2,105.1c-10.3,0-16.8,7.9-19.5,16.3h-7.1c3.5-5.1,6-10.8,6.1-14.4h-18.8v12h.9c3.3,0,3.8.6,3.8,3.8h0s0,46.5,0,46.5h15.3v-28.5c0-7.5.5-14,4.6-19,2.1-2.6,5.4-3.9,9.6-3.9,7.1,0,11.3,4.4,11.3,13.4v38h15.3v-41c0-14.4-7.4-23.1-21.4-23.1"/>
      <path id="path62" class="cls-2" d="M433.1,82.6h5v-2.3h-5v-2.5h5v-2.3h-7.3v12h2.3v-4.9"/>
      <path id="path64" class="cls-2" d="M443,79.8l4.5,7.7h2.3v-12h-2.3v7.7l-4.5-7.7h-2.3v12h2.3v-7.7"/>
      <path id="path66" class="cls-2" d="M456.4,85.4c-1.1,0-1.9-.7-2.1-1.7h-2.4c.1,2.4,1.8,4,4.4,4s4-1.3,4-3.5-1-3.2-2.8-3.6l-2-.5c-.7-.2-1.2-.5-1.2-1.2s.7-1.2,1.6-1.2,1.6.4,1.8,1.2h2.4c-.3-2-1.7-3.4-4.1-3.4s-4,1.1-4,3.5.9,3,2.7,3.5l2,.5c.8.2,1.2.6,1.2,1.3s-.7,1.2-1.7,1.2"/>
      <path id="path68" class="cls-2" d="M468.9,87.5h2.3v-12h-2.3l-2.3,2v2.7l2.3-2v9.3"/>
      <path id="path70" class="cls-2" d="M476.1,79.1c0-1,.6-1.7,1.7-1.7s1.7.7,1.7,1.7v.4c0,1-.6,1.7-1.7,1.7s-1.7-.7-1.7-1.7v-.4ZM477.7,83.3c.8,0,1.5-.3,1.8-.5v1.2c0,1-.6,1.7-1.7,1.7s-1.6-.6-1.7-1.5h0s-2.2,0-2.2,0h0c.2,2.2,1.5,3.6,3.9,3.6s3.9-1.6,3.9-4.1v-4.3c0-2.4-1.4-4-3.9-4s-3.9,1.6-3.9,3.9h0c0,2.4,1.4,4,3.8,4"/>
      <path id="path72" class="cls-2" d="M491.8,85.5h-4.7l2.8-2.7c1.2-1.1,1.9-2.3,1.9-3.8s-1.5-3.6-3.9-3.6-3.9,1.5-4,3.9h0s2.3,0,2.3,0v-.2c0-1,.6-1.7,1.7-1.7s1.7.7,1.7,1.6-.4,1.4-1.1,2.1l-4.5,4.4v2h7.9v-2"/>
      <path id="path74" class="cls-2" d="M498,85.7c-1,0-1.7-.7-1.7-1.6s.7-1.6,1.7-1.6,1.7.7,1.7,1.6-.7,1.6-1.7,1.6ZM498,77.4c1,0,1.6.7,1.6,1.6s-.6,1.6-1.6,1.6-1.6-.7-1.6-1.6.6-1.6,1.6-1.6ZM501.9,84c0-1-.4-2-1.2-2.6.7-.7,1-1.5,1-2.5,0-2.2-1.5-3.6-3.8-3.6s-3.8,1.4-3.8,3.6.3,1.9,1,2.5c-.8.6-1.2,1.6-1.2,2.6,0,2.3,1.7,3.6,3.9,3.6s3.9-1.4,3.9-3.6"/>
      <path id="path76" class="cls-2" d="M511.9,85.5h-4.7l2.8-2.7c1.2-1.1,1.9-2.3,1.9-3.8s-1.5-3.6-3.9-3.6-3.9,1.5-4,3.9h0s2.3,0,2.3,0v-.2c0-1,.6-1.7,1.7-1.7s1.7.7,1.7,1.6-.4,1.4-1.1,2.1l-4.5,4.4v2h7.9v-2"/>
      <path id="path78" class="cls-2" d="M516.2,87.5h2.3v-12h-2.3l-2.3,2v2.7l2.3-2v9.3"/>
      <path id="path80" class="cls-2" d="M369.3,138.8h-21v-21.3h21v21.3ZM343.5,169.3h36.5v14.3h-40.4v-14.3h3.9ZM384.3,117.8h-5c-2.9-7.6-10.9-12.6-22-12.6s-25.1,9.8-25.1,22.3,2.5,10.5,7.1,14v5.1c-6.6,2.4-9.9,6.3-9.9,11.4s2.6,6.8,6.6,8.1v5.3c-5,1.9-8.6,5.8-8.6,10.9s4.3,11.5,15.4,11.5h31.4c12,0,21-6.6,21-18.5s-8.5-18.3-21-18.3h-26.9c-4.1,0-6-.9-6-3.2s1.8-4,5.1-5.1c2.9,1.5,7,2.3,12.4,2.3,14.4,0,24.8-8.5,26-22.3l.2-1.9c.5-6.7,2-7.8,6.5-7.8h6.1v-11.9h-3.6c-6.1,0-8.9,3.1-9.8,10.8"/>
    </g>
  </g>
</svg>